<?xml version="1.0" encoding="UTF-8" standalone="no"?>
<svg
   height="24px"
   viewBox="0 -960 960 960"
   width="24px"
   fill="#e8eaed"
   version="1.1"
   id="svg1"
   sodipodi:docname="dsp-disabled.svg"
   inkscape:version="1.4 (e7c3feb100, 2024-10-09)"
   xmlns:inkscape="http://www.inkscape.org/namespaces/inkscape"
   xmlns:sodipodi="http://sodipodi.sourceforge.net/DTD/sodipodi-0.dtd"
   xmlns="http://www.w3.org/2000/svg"
   xmlns:svg="http://www.w3.org/2000/svg">
  <defs
     id="defs1" />
  <sodipodi:namedview
     id="namedview1"
     pagecolor="#ffffff"
     bordercolor="#000000"
     borderopacity="0.25"
     inkscape:showpageshadow="2"
     inkscape:pageopacity="0.0"
     inkscape:pagecheckerboard="0"
     inkscape:deskcolor="#d1d1d1"
     inkscape:zoom="10.331969"
     inkscape:cx="-7.1622363"
     inkscape:cy="1.6453786"
     inkscape:window-width="2136"
     inkscape:window-height="1269"
     inkscape:window-x="0"
     inkscape:window-y="0"
     inkscape:window-maximized="1"
     inkscape:current-layer="svg1" />
  <path
     id="path1"
     style="fill:#000000"
     d="M 600 -840 L 600 -600 L 680 -600 L 680 -680 L 840 -680 L 840 -760 L 680 -760 L 680 -840 L 600 -840 z M 120 -760 L 120 -680 L 336.5625 -680 L 256.5625 -760 L 120 -760 z M 369.6875 -760 L 449.6875 -680 L 520 -680 L 520 -760 L 369.6875 -760 z M 280 -600 L 280 -520 L 120 -520 L 120 -440 L 280 -440 L 280 -360 L 360 -360 L 360 -600 L 280 -600 z M 440 -520 L 440 -440 L 576.5625 -440 L 496.5625 -520 L 440 -520 z M 609.6875 -520 L 689.6875 -440 L 840 -440 L 840 -520 L 609.6875 -520 z M 440 -360 L 440 -120 L 520 -120 L 520 -200 L 816.5625 -200 L 736.5625 -280 L 520 -280 L 520 -360 L 440 -360 z M 120 -280 L 120 -200 L 360 -200 L 360 -280 L 120 -280 z " />
  <rect
     style="fill:#000000;stroke-width:104.92;stroke-linecap:round;stroke-linejoin:round"
     id="rect1"
     width="1186.2163"
     height="80"
     x="-593.10815"
     y="638.82251"
     transform="rotate(-135)" />
</svg>
