<svg width="1762" height="240" viewBox="0 0 1762 240" fill="none" xmlns="http://www.w3.org/2000/svg">
<g clip-path="url(#clip0_3_51)">
<path d="M109.394 4.3814C115.242 -1.46047 124.788 -1.46047 130.606 4.3814L229.394 103.269C235.242 109.111 240 120.643 240 128.907V219.017L239.995 219.373C239.789 227.459 233.114 234.001 225 234.001H15C6.75759 234.001 2.40473e-05 227.22 0 218.987V128.877C0.000120331 120.613 4.78834 109.081 10.6064 103.239L109.394 4.3814Z" fill="#F2F4F9"/>
<path d="M109.394 4.3814C115.242 -1.46047 124.788 -1.46047 130.606 4.3814L229.394 103.269C235.242 109.111 240 120.643 240 128.907V219.017L239.995 219.373C239.789 227.459 233.114 234.001 225 234.001H15C6.75759 234.001 2.40473e-05 227.22 0 218.987V128.877C0.000120331 120.613 4.78834 109.081 10.6064 103.239L109.394 4.3814ZM36 120.001C31.5817 120.001 28 123.582 28 128.001V206.001H44V128.001C44 123.582 40.4183 120.001 36 120.001ZM68 120.001C63.5817 120.001 60 123.582 60 128.001V206.001H76V128.001C76 123.582 72.4183 120.001 68 120.001ZM100 120.001C95.5817 120.001 92 123.582 92 128.001V206.001H108V128.001C108 123.582 104.418 120.001 100 120.001ZM158.393 120.427C154.2 119.032 149.671 121.3 148.275 125.492L121.479 206.001H138.342L163.456 130.544C164.851 126.352 162.584 121.823 158.393 120.427ZM188.708 125.492C187.313 121.3 182.783 119.032 178.591 120.427C174.399 121.823 172.131 126.352 173.526 130.544L198.642 206.001H215.504L188.708 125.492Z" fill="#18BCF2"/>
<g clip-path="url(#clip1_3_51)">
<path d="M482.363 47.06V193.95H455.453V108.12L421.593 193.94H395.563L362.093 108.8V193.94H335.863V47.06H362.093L408.573 162.05L455.453 47.06H482.363Z" fill="#F2F4F9"/>
<path d="M581.292 193.94C580.442 191.2 579.822 187.87 579.432 183.96C573.492 192.38 563.972 196.58 550.852 196.58C539.892 196.58 530.202 193.42 521.792 187.09C513.772 180.63 509.752 169.97 509.752 155.09V94.51H535.982V149.8C535.982 158.74 538.072 164.9 542.242 168.3C546.352 171.63 551.082 173.29 556.432 173.29C562.172 173.29 567.322 171.5 571.892 167.91C576.522 164.26 578.842 158.16 578.842 149.61V94.52H605.162V175.55C605.162 182.2 605.812 188.34 607.122 193.95H581.292V193.94Z" fill="#F2F4F9"/>
<path d="M663.403 175.74C667.843 175.74 671.333 174.88 673.873 173.15C676.413 171.42 677.693 168.93 677.693 165.66C677.693 160.83 674.463 157.63 668.003 156.07L654.793 152.45C644.743 149.84 637.423 146.09 632.823 141.2C628.223 136.31 625.923 130.31 625.923 123.19C625.923 113.8 629.313 106.16 636.103 100.29C642.883 94.42 652.053 91.48 663.603 91.48C673.783 91.48 682.293 93.81 689.143 98.48C695.993 103.15 700.163 109.59 701.673 117.81L678.283 123.19C677.893 119.93 676.423 117.35 673.883 115.46C671.343 113.57 668.173 112.62 664.393 112.62C660.413 112.62 657.283 113.52 655.003 115.31C652.723 117.1 651.583 119.6 651.583 122.8C651.583 125.21 652.463 127.2 654.223 128.77C655.983 130.34 658.853 131.67 662.833 132.78L675.853 136.21C685.053 138.62 692.033 142.34 696.793 147.37C701.553 152.39 703.933 158.49 703.933 165.67C703.933 175.06 700.343 182.57 693.173 188.18C685.993 193.79 676.213 196.6 663.813 196.6C651.413 196.6 642.593 194.07 635.583 189.02C628.573 183.97 624.443 177.07 623.203 168.32L647.183 164.31C647.513 167.83 649.103 170.62 651.983 172.68C654.853 174.73 658.673 175.76 663.433 175.76L663.403 175.74Z" fill="#F2F4F9"/>
<path d="M720.062 60.66C720.062 56.29 721.592 52.59 724.662 49.55C727.732 46.52 731.482 45 735.912 45C740.342 45 744.102 46.52 747.162 49.55C750.232 52.58 751.762 56.29 751.762 60.66C751.762 65.03 750.232 68.93 747.162 71.96C744.092 74.99 740.342 76.51 735.912 76.51C731.482 76.51 727.722 74.99 724.662 71.96C721.592 68.93 720.062 65.16 720.062 60.66ZM749.122 94.52V193.95H722.892V94.52H749.122Z" fill="#F2F4F9"/>
<path d="M818.513 91.48C829.933 91.48 839.793 94.32 848.113 99.99C856.433 105.66 861.993 113.2 864.803 122.6L842.393 131.6C840.763 126.64 837.813 122.66 833.533 119.66C829.263 116.66 824.383 115.16 818.903 115.16C811.003 115.16 804.793 117.79 800.263 123.04C795.723 128.29 793.463 135.35 793.463 144.23C793.463 153.11 795.763 160.1 800.363 165.22C804.963 170.34 811.143 172.9 818.903 172.9C824.513 172.9 829.473 171.47 833.773 168.59C838.083 165.72 841.083 161.87 842.773 157.04L864.793 165.26C861.593 174.85 855.793 182.47 847.373 188.11C838.953 193.75 829.273 196.57 818.313 196.57C803.113 196.57 790.793 191.74 781.373 182.09C771.943 172.43 767.233 159.81 767.233 144.22C767.233 128.63 771.963 115.86 781.423 106.1C790.883 96.35 803.243 91.47 818.513 91.47V91.48Z" fill="#F2F4F9"/>
<path d="M1020.39 160.67H967.253L955.603 193.94H927.123L980.073 47.06H1007.76L1060.6 193.95H1031.54L1020.38 160.68L1020.39 160.67ZM1012.37 137.87L993.873 84.15L975.283 137.87H1012.37Z" fill="#F2F4F9"/>
<path d="M1109.45 175.74C1113.89 175.74 1117.38 174.88 1119.92 173.15C1122.46 171.42 1123.74 168.93 1123.74 165.66C1123.74 160.83 1120.51 157.63 1114.05 156.07L1100.84 152.45C1090.79 149.84 1083.47 146.09 1078.87 141.2C1074.27 136.31 1071.97 130.31 1071.97 123.19C1071.97 113.8 1075.36 106.16 1082.15 100.29C1088.93 94.42 1098.1 91.48 1109.65 91.48C1119.83 91.48 1128.34 93.81 1135.19 98.48C1142.04 103.15 1146.21 109.59 1147.72 117.81L1124.33 123.19C1123.94 119.93 1122.47 117.35 1119.93 115.46C1117.39 113.57 1114.22 112.62 1110.44 112.62C1106.46 112.62 1103.33 113.52 1101.05 115.31C1098.77 117.1 1097.63 119.6 1097.63 122.8C1097.63 125.21 1098.51 127.2 1100.27 128.77C1102.03 130.34 1104.9 131.67 1108.88 132.78L1121.9 136.21C1131.1 138.62 1138.08 142.34 1142.84 147.37C1147.6 152.39 1149.98 158.49 1149.98 165.67C1149.98 175.06 1146.39 182.57 1139.22 188.18C1132.04 193.79 1122.26 196.6 1109.86 196.6C1097.46 196.6 1088.64 194.07 1081.63 189.02C1074.62 183.97 1070.49 177.07 1069.25 168.32L1093.23 164.31C1093.56 167.83 1095.15 170.62 1098.03 172.68C1100.9 174.73 1104.72 175.76 1109.48 175.76L1109.45 175.74Z" fill="#F2F4F9"/>
<path d="M1202.41 175.74C1206.85 175.74 1210.34 174.88 1212.88 173.15C1215.42 171.42 1216.7 168.93 1216.7 165.66C1216.7 160.83 1213.47 157.63 1207.01 156.07L1193.8 152.45C1183.75 149.84 1176.43 146.09 1171.83 141.2C1167.23 136.31 1164.93 130.31 1164.93 123.19C1164.93 113.8 1168.32 106.16 1175.11 100.29C1181.89 94.42 1191.06 91.48 1202.61 91.48C1212.79 91.48 1221.3 93.81 1228.15 98.48C1235 103.15 1239.17 109.59 1240.68 117.81L1217.29 123.19C1216.9 119.93 1215.43 117.35 1212.89 115.46C1210.35 113.57 1207.18 112.62 1203.4 112.62C1199.42 112.62 1196.29 113.52 1194.01 115.31C1191.73 117.1 1190.59 119.6 1190.59 122.8C1190.59 125.21 1191.47 127.2 1193.23 128.77C1194.99 130.34 1197.86 131.67 1201.84 132.78L1214.86 136.21C1224.06 138.62 1231.04 142.34 1235.8 147.37C1240.56 152.39 1242.94 158.49 1242.94 165.67C1242.94 175.06 1239.35 182.57 1232.18 188.18C1225 193.79 1215.22 196.6 1202.82 196.6C1190.42 196.6 1181.6 194.07 1174.59 189.02C1167.58 183.97 1163.45 177.07 1162.21 168.32L1186.19 164.31C1186.52 167.83 1188.11 170.62 1190.99 172.68C1193.86 174.73 1197.68 175.76 1202.44 175.76L1202.41 175.74Z" fill="#F2F4F9"/>
<path d="M1259.07 60.66C1259.07 56.29 1260.6 52.59 1263.67 49.55C1266.74 46.52 1270.49 45 1274.92 45C1279.35 45 1283.11 46.52 1286.17 49.55C1289.24 52.58 1290.77 56.29 1290.77 60.66C1290.77 65.03 1289.24 68.93 1286.17 71.96C1283.1 74.99 1279.35 76.51 1274.92 76.51C1270.49 76.51 1266.73 74.99 1263.67 71.96C1260.6 68.93 1259.07 65.16 1259.07 60.66ZM1288.14 94.52V193.95H1261.91V94.52H1288.14Z" fill="#F2F4F9"/>
<path d="M1347.25 175.74C1351.69 175.74 1355.18 174.88 1357.72 173.15C1360.26 171.42 1361.54 168.93 1361.54 165.66C1361.54 160.83 1358.31 157.63 1351.85 156.07L1338.64 152.45C1328.59 149.84 1321.27 146.09 1316.67 141.2C1312.07 136.31 1309.77 130.31 1309.77 123.19C1309.77 113.8 1313.16 106.16 1319.95 100.29C1326.73 94.42 1335.9 91.48 1347.45 91.48C1357.63 91.48 1366.14 93.81 1372.99 98.48C1379.84 103.15 1384.01 109.59 1385.52 117.81L1362.13 123.19C1361.74 119.93 1360.27 117.35 1357.73 115.46C1355.19 113.57 1352.02 112.62 1348.24 112.62C1344.26 112.62 1341.13 113.52 1338.85 115.31C1336.57 117.1 1335.43 119.6 1335.43 122.8C1335.43 125.21 1336.31 127.2 1338.07 128.77C1339.83 130.34 1342.7 131.67 1346.68 132.78L1359.7 136.21C1368.9 138.62 1375.88 142.34 1380.64 147.37C1385.4 152.39 1387.78 158.49 1387.78 165.67C1387.78 175.06 1384.19 182.57 1377.02 188.18C1369.84 193.79 1360.06 196.6 1347.66 196.6C1335.26 196.6 1326.44 194.07 1319.43 189.02C1312.42 183.97 1308.29 177.07 1307.05 168.32L1331.03 164.31C1331.36 167.83 1332.95 170.62 1335.83 172.68C1338.7 174.73 1342.52 175.76 1347.28 175.76L1347.25 175.74Z" fill="#F2F4F9"/>
<path d="M1462.53 193.94C1456.14 195.57 1450.1 196.39 1444.43 196.39C1433.8 196.39 1425.56 193.54 1419.72 187.83C1413.88 182.12 1410.96 173.46 1410.96 161.85V117.03H1395.79V94.52H1410.96V63.69H1436.79V94.52H1459.69V117.03H1436.79V157.05C1436.59 167.75 1440.8 173.1 1449.41 173.1C1452.48 173.1 1455.84 172.51 1459.49 171.34L1462.52 193.95L1462.53 193.94Z" fill="#F2F4F9"/>
<path d="M1542.67 193.94C1542.08 190.81 1541.59 187.42 1541.2 183.76C1538.39 187.61 1534.43 190.71 1529.31 193.06C1524.19 195.41 1518.33 196.58 1511.74 196.58C1500.91 196.58 1492.18 193.68 1485.56 187.87C1478.94 182.06 1475.63 174.2 1475.63 164.29C1475.63 154.38 1478.84 146.76 1485.27 141.24C1491.69 135.73 1500.52 132.97 1511.74 132.97H1540.61V129.64C1540.61 123.9 1538.88 119.63 1535.42 116.82C1531.96 114.02 1527.13 112.61 1520.94 112.61C1509.98 112.61 1502.12 117.28 1497.36 126.6L1478.28 115.74C1486.83 99.56 1501.6 91.47 1522.61 91.47C1535.27 91.47 1545.67 94.77 1553.83 101.35C1561.98 107.94 1566.06 118.64 1566.06 133.45V171.52C1566.06 182.35 1566.68 189.82 1567.92 193.93H1542.67V193.94ZM1540.81 150.88H1518.01C1512.99 150.88 1509.09 152.04 1506.32 154.35C1503.55 156.67 1502.16 159.85 1502.16 163.89C1502.16 167.93 1503.61 171.2 1506.51 173.48C1509.41 175.77 1513.51 176.91 1518.79 176.91C1525.25 176.91 1530.53 174.95 1534.64 171.04C1538.75 167.13 1540.81 161.06 1540.81 152.84V150.88Z" fill="#F2F4F9"/>
<path d="M1682.71 132.78V193.94H1656.58V138.45C1656.58 129.38 1654.53 123.28 1650.41 120.15C1646.23 116.95 1641.6 115.36 1636.51 115.36C1630.57 115.36 1625.32 117.15 1620.76 120.74C1616.06 124.46 1613.71 130.56 1613.71 139.04V193.94H1587.68V94.52H1612.34L1613.12 104.4C1615.92 100.49 1619.95 97.35 1625.21 95.01C1630.46 92.66 1636.12 91.49 1642.19 91.49C1655.04 91.49 1665.01 95.1 1672.09 102.3C1679.17 109.51 1682.71 119.67 1682.71 132.78Z" fill="#F2F4F9"/>
<path d="M1762.08 193.94C1755.69 195.57 1749.65 196.39 1743.98 196.39C1733.35 196.39 1725.11 193.54 1719.27 187.83C1713.43 182.12 1710.51 173.46 1710.51 161.85V117.03H1695.34V94.52H1710.51V63.69H1736.34V94.52H1759.24V117.03H1736.34V157.05C1736.14 167.75 1740.35 173.1 1748.96 173.1C1752.03 173.1 1755.39 172.51 1759.04 171.34L1762.07 193.95L1762.08 193.94Z" fill="#F2F4F9"/>
</g>
</g>
<defs>
<clipPath id="clip0_3_51">
<rect width="1762" height="240" fill="white"/>
</clipPath>
<clipPath id="clip1_3_51">
<rect width="1426" height="154" fill="white" transform="translate(336 43)"/>
</clipPath>
</defs>
</svg>
