<?xml version="1.0" encoding="UTF-8" standalone="no"?>
<!-- Generator: Gravit.io -->
<svg xmlns="http://www.w3.org/2000/svg" xmlns:xlink="http://www.w3.org/1999/xlink" style="isolation:isolate" viewBox="0 0 1578 356" width="1578pt" height="356pt"><defs><clipPath id="_clipPath_1uOyLlAdCRHiH7WivpeoEiFoBPa7DKWQ"><rect width="1578" height="356"/></clipPath></defs><g clip-path="url(#_clipPath_1uOyLlAdCRHiH7WivpeoEiFoBPa7DKWQ)"><path d=" M 130.992 4.781 C 124.939 -1.304 115.034 -1.304 109.008 4.781 L 11.006 103.307 C 4.953 109.393 0 121.405 0 129.994 L 0 219.352 C 0 227.94 6.996 235 15.565 235 L 224.435 235 C 232.977 235 240 227.966 240 219.352 L 240 129.994 C 240 121.405 235.048 109.393 228.994 103.307 L 130.992 4.781 L 130.992 4.781 Z " fill="rgb(24,188,242)"/><path d=" M 228 275 C 234.627 275 240 280.373 240 287 L 240 344 C 240 350.627 234.627 356 228 356 L 213 356 C 206.373 356 201 350.627 201 344 L 201 314 L 39 314 L 39 344 C 39 350.627 33.627 356 27 356 L 12 356 C 5.373 356 0 350.627 0 344 L 0 287 C 0 280.373 5.373 275 12 275 L 228 275 L 228 275 Z " fill="rgb(237,236,237)"/><path d=" M 394.872 38 C 405.86 38 416.041 39.979 425.415 43.964 C 434.789 47.922 442.731 53.417 449.241 60.423 C 455.751 67.428 460.828 75.814 464.474 85.632 C 468.093 95.45 469.916 106.05 469.916 117.456 C 470.046 128.733 468.275 139.306 464.63 149.228 C 460.958 159.151 455.829 167.615 449.241 174.646 C 442.653 181.678 434.633 187.199 425.207 191.183 C 415.781 195.194 405.6 197.121 394.663 196.991 C 380.212 197.199 367.219 193.866 355.709 187.016 C 344.2 180.167 335.321 170.662 329.072 158.5 C 322.822 146.338 319.802 132.717 320.01 117.665 C 319.88 106.388 321.651 95.815 325.296 85.893 C 328.967 75.97 334.071 67.506 340.633 60.423 C 347.195 53.365 355.163 47.818 364.563 43.834 C 373.963 39.849 384.066 37.896 394.872 38.026 L 394.872 38 L 394.872 38 Z  M 395.054 166.547 C 408.021 166.547 418.281 162.146 425.858 153.369 C 433.435 144.567 437.211 132.613 437.211 117.456 C 437.211 102.299 433.435 90.164 425.91 81.387 C 418.385 72.637 408.1 68.262 395.054 68.262 C 382.009 68.262 371.723 72.637 364.198 81.387 C 356.673 90.138 352.897 102.169 352.897 117.456 C 352.897 132.743 356.673 144.749 364.198 153.473 C 371.723 162.198 382.009 166.573 395.054 166.573 L 395.054 166.547 L 395.054 166.547 Z " fill="rgb(24,188,242)"/><path d=" M 606.49 91.57 C 606.49 106.987 601.829 119.383 592.533 128.785 C 583.237 138.186 570.582 142.9 554.542 142.9 L 524.103 142.9 L 524.103 194.439 L 493.038 194.439 L 493.038 40.735 L 554.959 40.735 C 571.051 40.735 583.654 45.266 592.793 54.329 C 601.933 63.392 606.49 75.814 606.49 91.544 L 606.49 91.57 L 606.49 91.57 Z  M 573.681 90.971 C 573.681 84.46 571.572 79.069 567.327 74.824 C 563.083 70.579 556.964 68.47 548.944 68.47 L 524.103 68.47 L 524.103 115.842 L 548.944 115.842 C 557.016 115.842 563.161 113.55 567.379 108.966 C 571.598 104.383 573.681 98.393 573.681 90.997 L 573.681 90.971 L 573.681 90.971 Z " fill="rgb(24,188,242)"/><path d=" M 725.123 194.439 L 628.388 194.439 L 628.388 40.735 L 725.123 40.735 L 725.123 70.267 L 659.427 70.267 L 659.427 103.055 L 717.78 103.055 L 717.78 130.556 L 659.427 130.556 L 659.427 165.193 L 725.123 165.193 L 725.123 194.439 L 725.123 194.439 Z " fill="rgb(24,188,242)"/><path d=" M 886.434 40.761 L 886.434 194.465 L 855.578 194.465 L 788.267 90.372 L 788.267 194.465 L 757.411 194.465 L 757.411 40.761 L 788.267 40.761 L 855.578 145.062 L 855.578 40.761 L 886.434 40.761 L 886.434 40.761 Z " fill="rgb(24,188,242)"/><path d=" M 974.419 40.761 L 1005.48 40.761 L 1005.48 102.898 L 1066.39 103.107 L 1066.39 40.761 L 1097.66 40.761 L 1097.66 194.465 L 1066.39 194.465 L 1066.39 130.816 L 1005.48 130.4 L 1005.48 194.465 L 974.419 194.465 L 974.419 40.761 L 974.419 40.761 Z " fill="rgb(24,188,242)"/><path d=" M 1195.41 38 C 1206.4 38 1216.58 39.979 1225.95 43.964 C 1235.33 47.922 1243.27 53.417 1249.78 60.423 C 1256.29 67.428 1261.37 75.814 1265.01 85.632 C 1268.63 95.45 1270.45 106.05 1270.45 117.456 C 1270.59 128.733 1268.81 139.306 1265.17 149.228 C 1261.5 159.151 1256.37 167.615 1249.78 174.646 C 1243.19 181.678 1235.17 187.199 1225.75 191.183 C 1216.32 195.194 1206.14 197.121 1195.2 196.991 C 1180.75 197.199 1167.76 193.866 1156.25 187.016 C 1144.74 180.167 1135.86 170.662 1129.61 158.5 C 1123.36 146.338 1120.34 132.717 1120.55 117.665 C 1120.42 106.388 1122.19 95.815 1125.84 85.893 C 1129.51 75.97 1134.61 67.506 1141.17 60.423 C 1147.73 53.365 1155.7 47.818 1165.1 43.834 C 1174.5 39.849 1184.6 37.896 1195.41 38.026 L 1195.41 38 L 1195.41 38 Z  M 1195.59 166.547 C 1208.56 166.547 1218.82 162.146 1226.4 153.369 C 1233.97 144.567 1237.75 132.613 1237.75 117.456 C 1237.75 102.299 1233.97 90.164 1226.45 81.387 C 1218.92 72.637 1208.64 68.262 1195.59 68.262 C 1182.55 68.262 1172.26 72.637 1164.74 81.387 C 1157.21 90.138 1153.44 102.169 1153.44 117.456 C 1153.44 132.743 1157.21 144.749 1164.74 153.473 C 1172.26 162.198 1182.55 166.573 1195.59 166.573 L 1195.59 166.547 L 1195.59 166.547 Z " fill="rgb(24,188,242)"/><path d=" M 1448.66 40.761 L 1448.66 194.465 L 1418.02 194.465 L 1418.02 110.425 L 1385.13 194.465 L 1355.71 194.465 L 1323.21 111.05 L 1323.21 194.465 L 1293.58 194.465 L 1293.58 40.761 L 1323.21 40.761 L 1370.47 158.187 L 1418.02 40.761 L 1448.66 40.761 L 1448.66 40.761 Z " fill="rgb(24,188,242)"/><path d=" M 1578 194.439 L 1481.27 194.439 L 1481.27 40.735 L 1578 40.735 L 1578 70.267 L 1512.3 70.267 L 1512.3 103.055 L 1570.66 103.055 L 1570.66 130.556 L 1512.3 130.556 L 1512.3 165.193 L 1578 165.193 L 1578 194.439 L 1578 194.439 Z " fill="rgb(24,188,242)"/><path d=" M 337.556 255.482 L 337.556 290.019 L 381.796 290.019 L 381.796 305.793 L 337.556 305.793 L 337.556 353.947 L 320 353.947 L 320 238.876 L 390.145 238.876 L 390.145 255.482 L 337.556 255.482 L 337.556 255.482 Z " fill="rgb(237,236,237)"/><path d=" M 457.116 237.005 C 465.101 236.901 472.591 238.357 479.536 241.345 C 486.48 244.334 492.41 248.465 497.299 253.741 C 502.163 259.016 505.986 265.357 508.743 272.711 C 511.5 280.092 512.826 287.966 512.722 296.36 C 512.826 304.805 511.5 312.758 508.743 320.164 C 505.986 327.596 502.163 333.911 497.299 339.186 C 492.436 344.436 486.506 348.568 479.536 351.556 C 472.565 354.545 465.101 356 457.116 355.896 C 449.132 356 441.667 354.545 434.723 351.556 C 427.779 348.568 421.875 344.436 417.011 339.16 C 412.148 333.885 408.325 327.544 405.594 320.19 C 402.863 312.835 401.536 304.935 401.64 296.542 C 401.536 288.148 402.863 280.248 405.594 272.867 C 408.325 265.487 412.122 259.146 417.011 253.845 C 421.875 248.569 427.779 244.412 434.723 241.397 C 441.667 238.382 449.132 236.927 457.116 237.031 L 457.116 237.005 L 457.116 237.005 Z  M 430.328 326.998 C 437.116 334.691 446.089 338.563 457.272 338.563 C 468.456 338.563 477.429 334.717 484.191 326.998 C 490.953 319.306 494.334 309.093 494.334 296.36 C 494.334 283.626 490.953 273.335 484.191 265.643 C 477.429 257.951 468.456 254.079 457.272 254.079 C 446.089 254.079 437.09 257.951 430.328 265.669 C 423.539 273.387 420.158 283.626 420.158 296.36 C 420.158 309.093 423.539 319.306 430.328 326.998 Z " fill="rgb(237,236,237)"/><path d=" M 548.77 238.85 L 548.77 312.42 C 548.822 321.177 551.397 327.804 556.494 332.274 C 561.592 336.77 568.302 339.004 576.599 339.004 C 584.896 339.004 591.242 336.64 596.547 331.936 C 601.853 327.232 604.506 320.71 604.506 312.42 L 604.506 238.85 L 622.062 238.85 L 622.062 313.121 C 622.062 319.878 620.839 325.985 618.42 331.468 C 616.002 336.951 612.699 341.473 608.563 344.981 C 604.402 348.516 599.616 351.218 594.129 353.141 C 588.641 355.064 582.815 356 576.573 356 C 570.331 356 564.739 355.064 559.329 353.219 C 553.92 351.374 549.082 348.698 544.869 345.215 C 540.629 341.733 537.3 337.237 534.855 331.702 C 532.411 326.167 531.188 319.956 531.188 313.121 L 531.188 238.85 L 548.77 238.85 L 548.77 238.85 Z " fill="rgb(237,236,237)"/><path d=" M 739.438 238.85 L 739.438 353.921 L 721.882 353.921 L 665.106 267.202 L 665.106 353.921 L 647.55 353.921 L 647.55 238.85 L 665.106 238.85 L 721.882 325.725 L 721.882 238.85 L 739.438 238.85 L 739.438 238.85 Z " fill="rgb(237,236,237)"/><path d=" M 862.119 296.516 C 862.171 304.753 860.741 312.498 857.828 319.696 C 854.915 326.92 850.884 333.053 845.76 338.095 C 840.636 343.136 834.472 347.086 827.268 349.919 C 820.064 352.752 812.391 354.103 804.173 353.947 L 765.81 353.947 L 765.81 238.876 L 804.173 238.876 C 814.992 238.72 824.875 241.111 833.77 246.075 C 842.665 251.012 849.635 257.925 854.681 266.786 C 859.727 275.648 862.197 285.575 862.119 296.542 L 862.119 296.516 L 862.119 296.516 Z  M 843.471 296.516 C 843.471 284.354 839.856 274.479 832.6 266.89 C 825.343 259.302 815.824 255.482 804.017 255.482 L 783.522 255.482 L 783.522 337.627 L 804.017 337.627 C 815.928 337.627 825.473 333.859 832.678 326.297 C 839.882 318.761 843.471 308.807 843.471 296.516 Z " fill="rgb(237,236,237)"/><path d=" M 939.208 326.271 L 893.251 326.271 L 883.264 353.947 L 865.24 353.947 L 906.854 238.876 L 925.736 238.876 L 967.583 353.947 L 949.013 353.947 L 939.182 326.271 L 939.208 326.271 L 939.208 326.271 Z  M 934.111 311.354 L 916.399 261.199 L 898.531 311.354 L 934.111 311.354 L 934.111 311.354 Z " fill="rgb(237,236,237)"/><path d=" M 1046.41 255.482 L 1012.99 255.482 L 1012.99 353.947 L 995.282 353.947 L 995.282 255.482 L 961.862 255.482 L 961.862 238.876 L 1046.39 238.876 L 1046.39 255.482 L 1046.41 255.482 L 1046.41 255.482 Z " fill="rgb(237,236,237)"/><path d=" M 1062.28 353.921 L 1062.28 238.85 L 1079.99 238.85 L 1079.99 353.921 L 1062.28 353.921 L 1062.28 353.921 Z " fill="rgb(237,236,237)"/><path d=" M 1154.92 237.005 C 1162.91 236.901 1170.4 238.357 1177.34 241.345 C 1184.31 244.334 1190.22 248.465 1195.1 253.741 C 1199.97 259.016 1203.79 265.357 1206.55 272.711 C 1209.31 280.092 1210.63 287.966 1210.53 296.36 C 1210.63 304.805 1209.31 312.758 1206.55 320.164 C 1203.79 327.596 1199.97 333.911 1195.1 339.186 C 1190.24 344.436 1184.31 348.568 1177.34 351.556 C 1170.37 354.545 1162.91 356 1154.92 355.896 C 1146.94 356 1139.47 354.545 1132.53 351.556 C 1125.58 348.568 1119.68 344.436 1114.82 339.16 C 1109.95 333.885 1106.13 327.544 1103.4 320.19 C 1100.67 312.835 1099.34 304.935 1099.45 296.542 C 1099.34 288.148 1100.67 280.248 1103.4 272.867 C 1106.13 265.487 1109.93 259.146 1114.82 253.845 C 1119.68 248.569 1125.58 244.412 1132.53 241.397 C 1139.47 238.382 1146.94 236.927 1154.92 237.031 L 1154.92 237.005 L 1154.92 237.005 Z  M 1128.13 326.998 C 1134.92 334.691 1143.89 338.563 1155.08 338.563 C 1166.26 338.563 1175.23 334.717 1182 326.998 C 1188.76 319.306 1192.14 309.093 1192.14 296.36 C 1192.14 283.626 1188.76 273.335 1182 265.643 C 1175.23 257.951 1166.26 254.079 1155.08 254.079 C 1143.89 254.079 1134.9 257.951 1128.13 265.669 C 1121.34 273.387 1117.96 283.626 1117.96 296.36 C 1117.96 309.093 1121.34 319.306 1128.13 326.998 Z " fill="rgb(237,236,237)"/><path d=" M 1322 238.85 L 1322 353.921 L 1304.44 353.921 L 1247.67 267.202 L 1247.67 353.921 L 1230.11 353.921 L 1230.11 238.85 L 1247.67 238.85 L 1304.44 325.725 L 1304.44 238.85 L 1322 238.85 L 1322 238.85 Z " fill="rgb(237,236,237)"/></g></svg>