<svg width="1578" height="356" viewBox="0 0 1578 356" fill="none" xmlns="http://www.w3.org/2000/svg">
  <path d="M130.992 4.78147C124.939 -1.30395 115.034 -1.30395 109.008 4.78147L11.0056 103.307C4.95251 109.393 0 121.405 0 129.994V219.352C0 227.94 6.9964 235 15.565 235H224.435C232.977 235 240 227.966 240 219.352V129.994C240 121.405 235.048 109.393 228.994 103.307L130.992 4.78147Z" fill="#18BCF2" />
  <path d="M228 275C234.627 275 240 280.373 240 287V344C240 350.627 234.627 356 228 356H213C206.373 356 201 350.627 201 344V314H39V344C39 350.627 33.6274 356 27 356H12C5.37258 356 0 350.627 0 344V287C0 280.373 5.37258 275 12 275H228Z" fill="#09202E" />
  <path d="M394.872 38C405.86 38 416.041 39.9792 425.415 43.9638C434.789 47.9223 442.731 53.4173 449.241 60.4228C455.751 67.4283 460.828 75.814 464.474 85.6321C468.093 95.4502 469.916 106.05 469.916 117.456C470.046 128.733 468.275 139.306 464.63 149.228C460.958 159.151 455.829 167.615 449.241 174.646C442.653 181.678 434.633 187.199 425.207 191.183C415.781 195.194 405.6 197.121 394.663 196.991C380.212 197.199 367.219 193.866 355.709 187.016C344.2 180.167 335.321 170.662 329.072 158.5C322.822 146.338 319.802 132.717 320.01 117.665C319.88 106.388 321.651 95.8148 325.296 85.8926C328.967 75.9703 334.071 67.5064 340.633 60.4228C347.195 53.3652 355.163 47.8181 364.563 43.8336C373.963 39.849 384.066 37.8958 394.872 38.026V38ZM395.054 166.547C408.021 166.547 418.281 162.146 425.858 153.369C433.435 144.567 437.211 132.613 437.211 117.456C437.211 102.299 433.435 90.1636 425.91 81.3872C418.385 72.6368 408.1 68.2616 395.054 68.2616C382.009 68.2616 371.723 72.6368 364.198 81.3872C356.673 90.1375 352.897 102.169 352.897 117.456C352.897 132.743 356.673 144.749 364.198 153.473C371.723 162.198 382.009 166.573 395.054 166.573V166.547Z" fill="#18BCF2" />
  <path d="M606.49 91.5699C606.49 106.987 601.829 119.383 592.533 128.785C583.237 138.186 570.582 142.9 554.542 142.9H524.103V194.439H493.038V40.7345H554.959C571.051 40.7345 583.654 45.2659 592.793 54.3288C601.933 63.3917 606.49 75.814 606.49 91.5438V91.5699ZM573.681 90.9709C573.681 84.4602 571.572 79.0694 567.327 74.8244C563.083 70.5794 556.964 68.47 548.944 68.47H524.103V115.842H548.944C557.016 115.842 563.161 113.55 567.379 108.966C571.598 104.383 573.681 98.3931 573.681 90.9969V90.9709Z" fill="#18BCF2" />
  <path d="M725.123 194.439H628.388V40.7345H725.123V70.2669H659.427V103.055H717.78V130.556H659.427V165.193H725.123V194.439Z" fill="#18BCF2" />
  <path d="M886.434 40.7605V194.465H855.578L788.267 90.3719V194.465H757.411V40.7605H788.267L855.578 145.062V40.7605H886.434Z" fill="#18BCF2" />
  <path d="M974.419 40.7605H1005.48V102.898L1066.39 103.107V40.7605H1097.66V194.465H1066.39V130.816L1005.48 130.4V194.465H974.419V40.7605Z" fill="#18BCF2" />
  <path d="M1195.41 38C1206.4 38 1216.58 39.9792 1225.95 43.9638C1235.33 47.9223 1243.27 53.4173 1249.78 60.4228C1256.29 67.4283 1261.37 75.814 1265.01 85.6321C1268.63 95.4502 1270.45 106.05 1270.45 117.456C1270.59 128.733 1268.81 139.306 1265.17 149.228C1261.5 159.151 1256.37 167.615 1249.78 174.646C1243.19 181.678 1235.17 187.199 1225.75 191.183C1216.32 195.194 1206.14 197.121 1195.2 196.991C1180.75 197.199 1167.76 193.866 1156.25 187.016C1144.74 180.167 1135.86 170.662 1129.61 158.5C1123.36 146.338 1120.34 132.717 1120.55 117.665C1120.42 106.388 1122.19 95.8148 1125.84 85.8926C1129.51 75.9703 1134.61 67.5064 1141.17 60.4228C1147.73 53.3652 1155.7 47.8181 1165.1 43.8336C1174.5 39.849 1184.6 37.8958 1195.41 38.026V38ZM1195.59 166.547C1208.56 166.547 1218.82 162.146 1226.4 153.369C1233.97 144.567 1237.75 132.613 1237.75 117.456C1237.75 102.299 1233.97 90.1636 1226.45 81.3872C1218.92 72.6368 1208.64 68.2616 1195.59 68.2616C1182.55 68.2616 1172.26 72.6368 1164.74 81.3872C1157.21 90.1375 1153.44 102.169 1153.44 117.456C1153.44 132.743 1157.21 144.749 1164.74 153.473C1172.26 162.198 1182.55 166.573 1195.59 166.573V166.547Z" fill="#18BCF2" />
  <path d="M1448.66 40.7605V194.465H1418.02V110.425L1385.13 194.465H1355.71L1323.21 111.05V194.465H1293.58V40.7605H1323.21L1370.47 158.187L1418.02 40.7605H1448.66Z" fill="#18BCF2" />
  <path d="M1578 194.439H1481.27V40.7345H1578V70.2669H1512.3V103.055H1570.66V130.556H1512.3V165.193H1578V194.439Z" fill="#18BCF2" />
  <path d="M337.556 255.482V290.019H381.796V305.793H337.556V353.947H320V238.876H390.145V255.482H337.556Z" fill="#09202E" />
  <path d="M457.116 237.005C465.101 236.901 472.591 238.357 479.536 241.345C486.48 244.334 492.41 248.465 497.299 253.741C502.163 259.016 505.986 265.357 508.743 272.711C511.5 280.092 512.826 287.966 512.722 296.36C512.826 304.805 511.5 312.758 508.743 320.164C505.986 327.596 502.163 333.911 497.299 339.186C492.436 344.436 486.506 348.568 479.536 351.556C472.565 354.545 465.101 356 457.116 355.896C449.132 356 441.667 354.545 434.723 351.556C427.779 348.568 421.875 344.436 417.011 339.16C412.148 333.885 408.325 327.544 405.594 320.19C402.863 312.835 401.536 304.935 401.64 296.542C401.536 288.148 402.863 280.248 405.594 272.867C408.325 265.487 412.122 259.146 417.011 253.845C421.875 248.569 427.779 244.412 434.723 241.397C441.667 238.382 449.132 236.927 457.116 237.031V237.005ZM430.328 326.998C437.116 334.691 446.089 338.563 457.272 338.563C468.456 338.563 477.429 334.717 484.191 326.998C490.953 319.306 494.334 309.093 494.334 296.36C494.334 283.626 490.953 273.335 484.191 265.643C477.429 257.951 468.456 254.079 457.272 254.079C446.089 254.079 437.09 257.951 430.328 265.669C423.539 273.387 420.158 283.626 420.158 296.36C420.158 309.093 423.539 319.306 430.328 326.998Z" fill="#09202E" />
  <path d="M548.77 238.85V312.42C548.822 321.177 551.397 327.804 556.494 332.274C561.592 336.77 568.302 339.004 576.599 339.004C584.896 339.004 591.242 336.64 596.547 331.936C601.853 327.232 604.506 320.71 604.506 312.42V238.85H622.062V313.121C622.062 319.878 620.839 325.985 618.42 331.468C616.002 336.951 612.699 341.473 608.563 344.981C604.402 348.516 599.616 351.218 594.129 353.141C588.641 355.064 582.815 356 576.573 356C570.331 356 564.739 355.064 559.329 353.219C553.92 351.374 549.082 348.698 544.869 345.215C540.629 341.733 537.3 337.237 534.855 331.702C532.411 326.167 531.188 319.956 531.188 313.121V238.85H548.77Z" fill="#09202E" />
  <path d="M739.438 238.85V353.921H721.882L665.106 267.202V353.921H647.55V238.85H665.106L721.882 325.725V238.85H739.438Z" fill="#09202E" />
  <path d="M862.119 296.516C862.171 304.753 860.741 312.498 857.828 319.696C854.915 326.92 850.884 333.053 845.76 338.095C840.636 343.136 834.472 347.086 827.268 349.919C820.064 352.752 812.391 354.103 804.173 353.947H765.81V238.876H804.173C814.992 238.72 824.875 241.111 833.77 246.075C842.665 251.012 849.635 257.925 854.681 266.786C859.727 275.648 862.197 285.575 862.119 296.542V296.516ZM843.471 296.516C843.471 284.354 839.856 274.479 832.6 266.89C825.343 259.302 815.824 255.482 804.017 255.482H783.522V337.627H804.017C815.928 337.627 825.473 333.859 832.678 326.297C839.882 318.761 843.471 308.807 843.471 296.516Z" fill="#09202E" />
  <path d="M939.208 326.271H893.251L883.264 353.947H865.24L906.854 238.876H925.736L967.583 353.947H949.013L939.182 326.271H939.208ZM934.111 311.354L916.399 261.199L898.531 311.354H934.111Z" fill="#09202E" />
  <path d="M1046.41 255.482H1012.99V353.947H995.282V255.482H961.862V238.876H1046.39V255.482H1046.41Z" fill="#09202E" />
  <path d="M1062.28 353.921V238.85H1079.99V353.921H1062.28Z" fill="#09202E" />
  <path d="M1154.92 237.005C1162.91 236.901 1170.4 238.357 1177.34 241.345C1184.31 244.334 1190.22 248.465 1195.1 253.741C1199.97 259.016 1203.79 265.357 1206.55 272.711C1209.31 280.092 1210.63 287.966 1210.53 296.36C1210.63 304.805 1209.31 312.758 1206.55 320.164C1203.79 327.596 1199.97 333.911 1195.1 339.186C1190.24 344.436 1184.31 348.568 1177.34 351.556C1170.37 354.545 1162.91 356 1154.92 355.896C1146.94 356 1139.47 354.545 1132.53 351.556C1125.58 348.568 1119.68 344.436 1114.82 339.16C1109.95 333.885 1106.13 327.544 1103.4 320.19C1100.67 312.835 1099.34 304.935 1099.45 296.542C1099.34 288.148 1100.67 280.248 1103.4 272.867C1106.13 265.487 1109.93 259.146 1114.82 253.845C1119.68 248.569 1125.58 244.412 1132.53 241.397C1139.47 238.382 1146.94 236.927 1154.92 237.031V237.005ZM1128.13 326.998C1134.92 334.691 1143.89 338.563 1155.08 338.563C1166.26 338.563 1175.23 334.717 1182 326.998C1188.76 319.306 1192.14 309.093 1192.14 296.36C1192.14 283.626 1188.76 273.335 1182 265.643C1175.23 257.951 1166.26 254.079 1155.08 254.079C1143.89 254.079 1134.9 257.951 1128.13 265.669C1121.34 273.387 1117.96 283.626 1117.96 296.36C1117.96 309.093 1121.34 319.306 1128.13 326.998Z" fill="#09202E" />
  <path d="M1322 238.85V353.921H1304.44L1247.67 267.202V353.921H1230.11V238.85H1247.67L1304.44 325.725V238.85H1322Z" fill="#09202E" />
</svg>
