<svg xmlns="http://www.w3.org/2000/svg" viewBox="0 0 240 356">
  <path d="M130.992 4.78147C124.939 -1.30395 115.034 -1.30395 109.008 4.78147L11.0056 103.307C4.95251 109.393 0 121.405 0 129.994V219.352C0 227.94 6.9964 235 15.565 235H224.435C232.977 235 240 227.966 240 219.352V129.994C240 121.405 235.048 109.393 228.994 103.307L130.992 4.78147Z" fill="currentColor" />
  <path d="M228 275C234.627 275 240 280.373 240 287V344C240 350.627 234.627 356 228 356H213C206.373 356 201 350.627 201 344V314H39V344C39 350.627 33.6274 356 27 356H12C5.37258 356 0 350.627 0 344V287C0 280.373 5.37258 275 12 275H228Z" fill="currentColor" opacity="0.6" />
</svg>
