<?xml version="1.0" encoding="UTF-8" standalone="no"?>
<!-- Created with Inkscape (http://www.inkscape.org/) -->

<svg
   width="48"
   height="48"
   viewBox="0 0 48 48"
   version="1.1"
   id="svg1"
   sodipodi:docname="pcm.svg"
   inkscape:version="1.4 (e7c3feb100, 2024-10-09)"
   inkscape:export-filename="../projects/music-assistant/music-assistant-frontend/src/assets/PCM.png"
   inkscape:export-xdpi="96"
   inkscape:export-ydpi="96"
   xmlns:inkscape="http://www.inkscape.org/namespaces/inkscape"
   xmlns:sodipodi="http://sodipodi.sourceforge.net/DTD/sodipodi-0.dtd"
   xmlns="http://www.w3.org/2000/svg"
   xmlns:svg="http://www.w3.org/2000/svg">
  <sodipodi:namedview
     id="namedview1"
     pagecolor="#000000"
     bordercolor="#000000"
     borderopacity="0.25"
     inkscape:showpageshadow="2"
     inkscape:pageopacity="0.0"
     inkscape:pagecheckerboard="0"
     inkscape:deskcolor="#d1d1d1"
     inkscape:document-units="px"
     inkscape:zoom="8"
     inkscape:cx="13.625"
     inkscape:cy="16.875"
     inkscape:window-width="2136"
     inkscape:window-height="1269"
     inkscape:window-x="0"
     inkscape:window-y="0"
     inkscape:window-maximized="1"
     inkscape:current-layer="layer1"
     showgrid="false" />
  <defs
     id="defs1" />
  <g
     inkscape:label="Layer 1"
     inkscape:groupmode="layer"
     id="layer1">
    <path
       style="font-size:22.6486px;font-family:'Noto Sans';-inkscape-font-specification:'Noto Sans';fill:#ffffff;stroke-width:1.48912;stroke-linecap:round;stroke-linejoin:round"
       d="m 6.4774995,15.638348 q 3.1708039,0 4.6203145,1.245673 1.44951,1.245673 1.44951,3.510533 0,1.336267 -0.611512,2.513995 -0.588864,1.155078 -2.0157254,1.879833 -1.4042132,0.724756 -3.8276133,0.724756 H 4.2352881 v 6.29631 H 2.1969142 v -16.1711 z M 6.2963107,17.38229 H 4.2352881 v 6.386905 h 1.6306992 q 2.3101572,0 3.4425871,-0.747403 1.1324296,-0.747404 1.1324296,-2.536644 0,-1.562753 -0.996538,-2.332805 Q 8.4479276,17.38229 6.2963107,17.38229 Z M 22.829778,17.201101 q -2.604589,0 -4.099396,1.743943 -1.494808,1.743942 -1.494808,4.778854 0,3.012264 1.381565,4.778855 1.404213,1.743942 4.189991,1.743942 1.064484,0 2.015725,-0.181189 0.951241,-0.181189 1.857185,-0.452972 v 1.766591 q -0.905944,0.339729 -1.879834,0.498269 -0.951241,0.15854 -2.287508,0.15854 -2.468698,0 -4.122045,-1.019187 -1.653348,-1.019187 -2.491346,-2.89902 -0.81535,-1.879834 -0.81535,-4.416477 0,-2.446049 0.883296,-4.303234 0.905944,-1.879834 2.649886,-2.92167 1.743942,-1.064484 4.235288,-1.064484 2.559292,0 4.461774,0.951241 l -0.81535,1.721294 Q 25.751448,17.744668 24.822855,17.472885 23.916911,17.201101 22.829778,17.201101 Z M 37.347531,31.809448 32.02511,17.631425 h -0.09059 q 0.06794,0.702106 0.113243,1.902482 0.0453,1.177727 0.0453,2.468698 v 9.806843 h -1.879834 v -16.1711 h 3.012264 l 4.982692,13.249431 h 0.09059 l 5.073286,-13.249431 h 2.989616 v 16.1711 h -2.015726 v -9.942735 q 0,-1.177727 0.0453,-2.332806 0.06795,-1.155078 0.113243,-1.879834 h -0.09059 l -5.390367,14.155375 z"
       id="text2"
       transform="scale(0.9884952,1.0116387)"
       aria-label="PCM" />
  </g>
</svg>
